<?xml version="1.0" encoding="UTF-8"?>
<svg id="Layer_1" data-name="Layer 1" xmlns="http://www.w3.org/2000/svg" xmlns:xlink="http://www.w3.org/1999/xlink" viewBox="0 0 1137.98 257">
  <defs>
    <style>
      .cls-1 {
        fill: #60b7f9;
      }

      .cls-2 {
        fill: url(#linear-gradient-5);
      }

      .cls-3 {
        fill: url(#linear-gradient-4);
      }

      .cls-4 {
        fill: url(#linear-gradient-3);
      }

      .cls-5 {
        fill: url(#linear-gradient-2);
      }

      .cls-6 {
        fill: url(#linear-gradient);
      }

      .cls-7 {
        fill: #6c6d70;
      }

      .cls-8 {
        fill: #848488;
      }

      .cls-9 {
        fill: #4994d0;
      }
    </style>
    <linearGradient id="linear-gradient" x1="-29.43" y1="45.88" x2="91.91" y2="167.22" gradientUnits="userSpaceOnUse">
      <stop offset=".04" stop-color="#f0f"/>
      <stop offset=".06" stop-color="#dd09eb"/>
      <stop offset=".09" stop-color="#981ec4"/>
      <stop offset=".12" stop-color="#622ea4"/>
      <stop offset=".15" stop-color="#3a3a8d"/>
      <stop offset=".17" stop-color="#224180"/>
      <stop offset=".18" stop-color="#1a447b"/>
      <stop offset=".24" stop-color="#19487f"/>
      <stop offset=".31" stop-color="#16538d"/>
      <stop offset=".38" stop-color="#1167a5"/>
      <stop offset=".45" stop-color="#0b83c5"/>
      <stop offset=".53" stop-color="#03a5ef"/>
      <stop offset=".55" stop-color="#00b3ff"/>
      <stop offset=".59" stop-color="#0698df"/>
      <stop offset=".63" stop-color="#0d79bb"/>
      <stop offset=".68" stop-color="#12629f"/>
      <stop offset=".72" stop-color="#16518b"/>
      <stop offset=".77" stop-color="#19477e"/>
      <stop offset=".81" stop-color="#1a447b"/>
      <stop offset="1" stop-color="#f0f"/>
    </linearGradient>
    <linearGradient id="linear-gradient-2" x1="127.71" y1="30.95" x2="251.6" y2="154.84" xlink:href="#linear-gradient"/>
    <linearGradient id="linear-gradient-3" x1="526.12" y1="25.97" x2="658.87" y2="158.71" xlink:href="#linear-gradient"/>
    <linearGradient id="linear-gradient-4" x1="923.68" y1="59.15" x2="1042.73" y2="178.19" xlink:href="#linear-gradient"/>
    <linearGradient id="linear-gradient-5" x1="1074.67" x2="1167.59" y2="138.8" xlink:href="#linear-gradient"/>
  </defs>
  <path class="cls-6" d="M.19,16.26h33.69v118.04h56.83v34.13H.19V16.26Z"/>
  <path class="cls-5" d="M238.02,135.16v33.26h-95.62V16.26h93.41v33.26h-60.06v25.65h52.92v32.17h-52.92v27.82h62.27Z"/>
  <path class="cls-4" d="M649.16,16.26v152.16h-27.74l-52.58-81.08v81.08h-33.01V16.26h27.74l52.58,81.08V16.26h33.01Z"/>
  <g>
    <path class="cls-7" d="M31.2,215.03c0,9.03-5.23,14.59-13.67,14.59h-7.25v11.84h-5.96v-41.03h13.21c8.44,0,13.67,5.51,13.67,14.59ZM25.19,215.03c0-5.16-2.71-8.15-7.94-8.15h-6.97v16.29h6.97c5.23,0,7.94-2.99,7.94-8.15Z"/>
    <path class="cls-7" d="M68.82,220.95c0-12.13,7.34-21.1,17.3-21.1s17.3,8.91,17.3,21.1-7.34,21.1-17.3,21.1-17.3-8.97-17.3-21.1ZM97.41,220.95c0-8.38-4.82-14.42-11.29-14.42s-11.29,6.04-11.29,14.42,4.82,14.42,11.29,14.42,11.29-6.04,11.29-14.42Z"/>
    <path class="cls-7" d="M189.17,200.44l-10.64,41.03h-6.33l-7.94-30.36-8.08,30.36h-6.38l-10.64-41.03h6.19l7.98,31.18,8.3-31.18h5.51l8.12,31.36,8.21-31.36h5.69Z"/>
    <path class="cls-7" d="M251.62,235.08v6.39h-24.09v-41.03h23.45v6.39h-17.48v10.67h15.51v6.27h-15.51v11.31h18.12Z"/>
    <path class="cls-7" d="M312.78,241.47l-6.56-12.01c-.41.06-.83.06-1.24.06h-7.25v11.96h-5.96v-41.03h13.21c8.44,0,13.67,5.51,13.67,14.59,0,6.21-2.48,10.78-6.84,12.95l7.39,13.48h-6.42ZM304.71,206.89h-6.97v16.35h6.97c5.23,0,7.94-3.05,7.94-8.21s-2.71-8.15-7.94-8.15Z"/>
    <path class="cls-7" d="M382.89,235.08v6.39h-24.09v-41.03h23.45v6.39h-17.48v10.67h15.51v6.27h-15.51v11.31h18.12Z"/>
    <path class="cls-7" d="M423.04,200.44h14.04c10.42,0,17.53,8.21,17.53,20.51s-7.11,20.51-17.53,20.51h-14.04v-41.03ZM436.8,235.02c7.16,0,11.79-5.57,11.79-14.07s-4.63-14.07-11.79-14.07h-7.8v28.13h7.8Z"/>
  </g>
  <g>
    <path class="cls-7" d="M585.83,230.92c0,7.03-4.31,11.14-12.57,11.14h-15.97v-41.03h15.05c7.71,0,11.84,4.16,11.84,10.67,0,4.22-1.65,7.33-4.13,9.03,3.44,1.41,5.78,4.86,5.78,10.2ZM563.25,207v11.31h8.44c4.13,0,6.47-1.88,6.47-5.63s-2.34-5.69-6.47-5.69h-8.44ZM579.82,230.16c0-4.1-2.43-5.92-6.93-5.92h-9.63v11.84h9.63c4.5,0,6.93-1.82,6.93-5.92Z"/>
    <path class="cls-7" d="M638.87,227.58v14.48h-5.96v-14.36l-12.62-26.67h6.38l9.41,19.99,9.5-19.99h5.87l-12.57,26.55Z"/>
  </g>
  <g>
    <path class="cls-7" d="M1066.72,201.03h5.96v41.03h-5.96v-41.03Z"/>
    <path class="cls-7" d="M1121.37,207.47h-10.64v-6.45h27.25v6.45h-10.64v34.58h-5.96v-34.58Z"/>
  </g>
  <g>
    <path class="cls-8" d="M372.15,29.42l15-27,97,166h-31L372.15,29.42Z"/>
    <polygon class="cls-1" points="387.64 110.42 369.69 141.42 336.04 141.42 386.15 56.42 355.71 56.42 289.71 167.42 315.03 167.42 320.71 167.42 354.64 167.42 370.15 167.42 385.64 167.42 402.64 137.42 387.64 110.42"/>
    <polygon class="cls-9" points="308.92 156.64 336.04 141.42 386.15 56.42 361.95 69.42 308.92 156.64"/>
    <polyline class="cls-9" points="385.64 167.42 378.78 156.64 308.92 156.64 289.71 167.42"/>
    <polygon class="cls-9" points="387.64 110.42 369.69 141.42 378.78 156.64 387.95 137.42 387.64 110.42"/>
    <polygon class="cls-7" points="484.15 168.42 461.95 156.42 386.95 28.42 372.15 29.42 453.15 168.42 484.15 168.42"/>
  </g>
  <path class="cls-3" d="M1008.09,138.86h-50.36l-9.36,29.56h-34.37l52.58-152.16h33.18l52.75,152.16h-35.05l-9.36-29.56ZM998.22,107.12l-15.31-48.69-15.31,48.69h30.63Z"/>
  <path class="cls-2" d="M1104.29,16.26h33.69v152.16h-33.69V16.26Z"/>
  <g>
    <path class="cls-7" d="M754.13,201.03h5.96v34.58h16.79v6.45h-22.76v-41.03Z"/>
    <path class="cls-7" d="M839.19,235.66v6.39h-24.09v-41.03h23.45v6.39h-17.48v10.67h15.51v6.27h-15.51v11.31h18.12Z"/>
    <path class="cls-7" d="M964.04,201.03v41.03h-4.91l-17.71-27.78v27.78h-5.92v-41.03h4.91l17.71,27.78v-27.78h5.92Z"/>
    <g>
      <path class="cls-8" d="M885.28,207.71l3.7-6.66,23.93,40.95h-7.65l-19.98-34.29Z"/>
      <polygon class="cls-1" points="889.1 227.69 884.68 235.33 876.37 235.33 888.74 214.37 881.23 214.37 864.95 241.75 871.19 241.75 872.59 241.75 880.96 241.75 884.79 241.75 888.61 241.75 892.8 234.35 889.1 227.69"/>
      <polygon class="cls-9" points="869.69 239.09 876.37 235.33 888.74 214.37 882.77 217.57 869.69 239.09"/>
      <polyline class="cls-9" points="888.61 241.75 886.92 239.09 869.69 239.09 864.95 241.75"/>
      <polygon class="cls-9" points="889.1 227.69 884.68 235.33 886.92 239.09 889.18 234.35 889.1 227.69"/>
      <polygon class="cls-7" points="912.91 241.99 907.43 239.03 888.93 207.46 885.28 207.71 905.26 241.99 912.91 241.99"/>
    </g>
  </g>
</svg>